<?xml version="1.0" standalone="no"?><!DOCTYPE svg PUBLIC "-//W3C//DTD SVG 1.1//EN" "http://www.w3.org/Graphics/SVG/1.1/DTD/svg11.dtd"><svg t="1550913526447" class="icon" style="" viewBox="0 0 1024 1024" version="1.1" xmlns="http://www.w3.org/2000/svg" p-id="2265" xmlns:xlink="http://www.w3.org/1999/xlink" width="200" height="200"><defs><style type="text/css"></style></defs><path d="M510.72 980.48c-258.7392 0-468.48-209.75616-468.48-468.48 0-258.73408 209.7408-468.48 468.48-468.48 258.72896 0 468.48 209.74592 468.48 468.48C979.2 770.72384 769.44896 980.48 510.72 980.48zM510.72 102.08256c-226.39616 0-409.92256 183.5264-409.92256 409.92256s183.5264 409.92256 409.92256 409.92256c226.39104 0 409.92256-183.5264 409.92256-409.92256S737.11104 102.08256 510.72 102.08256zM686.40256 541.28128l-146.40128 0 0 146.40128c0 16.15872-13.11232 29.28128-29.28128 29.28128s-29.28128-13.12256-29.28128-29.28128l0-146.40128L335.04256 541.28128c-16.16896 0-29.28128-13.12256-29.28128-29.28128 0-16.17408 13.11232-29.28128 29.28128-29.28128l146.40128 0L481.44384 336.32256c0-16.17408 13.11232-29.28128 29.28128-29.28128s29.28128 13.1072 29.28128 29.28128l0 146.40128 146.40128 0c16.16896 0 29.28128 13.1072 29.28128 29.28128C715.67872 528.15872 702.57152 541.28128 686.40256 541.28128z" p-id="2266"></path></svg>